<?xml version="1.0" standalone="no"?>
<!DOCTYPE svg PUBLIC "-//W3C//DTD SVG 20010904//EN"
 "http://www.w3.org/TR/2001/REC-SVG-20010904/DTD/svg10.dtd">
<svg version="1.0" xmlns="http://www.w3.org/2000/svg"
 width="390.000000pt" height="390.000000pt" viewBox="0 0 390.000000 390.000000"
 preserveAspectRatio="xMidYMid meet">
<metadata>
Created by potrace 1.11, written by Peter Selinger 2001-2013
</metadata>
<g transform="translate(0.000000,390.000000) scale(0.100000,-0.100000)"
fill="#000000" stroke="none">
<path d="M1755 3889 c-465 -49 -884 -252 -1205 -585 -247 -256 -409 -548 -494
-890 -45 -180 -51 -239 -51 -469 0 -184 4 -239 22 -335 60 -312 181 -590 361
-829 68 -90 167 -201 180 -201 4 0 238 231 520 513 l512 512 -300 300 -300
299 -118 -117 c-127 -125 -151 -138 -192 -97 -38 38 -27 56 127 212 125 126
152 148 178 148 27 0 110 -80 733 -703 715 -715 722 -722 694 -763 -8 -12 -46
-34 -59 -34 -4 0 -158 151 -343 335 l-335 335 -515 -515 -514 -514 38 -34 c58
-53 183 -141 282 -198 417 -240 923 -317 1393 -213 754 168 1336 762 1490
1519 137 674 -104 1389 -622 1845 -402 355 -957 534 -1482 479z m215 -965 c0
-20 -178 -355 -201 -379 -18 -19 -19 -19 -47 8 l-28 27 -132 -133 -132 -132
65 -65 c53 -53 65 -70 65 -97 0 -33 -28 -63 -59 -63 -8 0 -97 82 -198 182
-192 192 -203 208 -163 248 33 33 57 24 131 -47 l70 -67 132 132 131 131 -24
26 c-19 20 -22 30 -14 43 15 23 374 211 391 205 7 -3 13 -11 13 -19z m850
-291 c-51 -98 -101 -187 -111 -198 -18 -19 -19 -19 -50 4 l-32 23 -335 -335
-336 -336 67 -70 c70 -72 81 -99 50 -133 -37 -42 -60 -27 -242 155 -95 96
-178 182 -183 191 -14 25 20 70 57 74 23 3 39 -8 94 -62 l66 -66 338 338 c335
335 338 338 317 357 -11 10 -20 28 -20 40 0 19 30 38 193 123 253 133 251 135
127 -105z m194 -768 c3 -9 -36 -94 -93 -203 -106 -201 -120 -215 -165 -173
l-22 21 -124 -125 -124 -124 67 -70 c37 -38 67 -74 67 -81 0 -16 -21 -53 -34
-62 -35 -24 -86 18 -323 264 -96 100 -100 109 -65 151 29 33 62 21 134 -50
l68 -68 124 124 125 125 -25 29 c-18 21 -22 33 -15 45 9 17 365 211 387 212 7
0 15 -7 18 -15z"/>
</g>
</svg>
